{
    "asset" : {
        "generator" : "Khronos glTF Blender I/O v3.2.43",
        "version" : "2.0"
    },
    "extensionsUsed" : [
        "KHR_materials_transmission"
    ],
    "scene" : 0,
    "scenes" : [
        {
            "name" : "Scene",
            "nodes" : [
                0
            ]
        }
    ],
    "nodes" : [
        {
            "mesh" : 0,
            "name" : "Car"
        }
    ],
    "materials" : [
        {
            "doubleSided" : true,
            "name" : "Car Paint",
            "pbrMetallicRoughness" : {
                "baseColorFactor" : [
                    0.011840088292956352,
                    0.15077684819698334,
                    0.8000000715255737,
                    1
                ],
                "metallicFactor" : 0,
                "roughnessFactor" : 0.24015748500823975
            }
        },
        {
            "doubleSided" : true,
            "extensions" : {
                "KHR_materials_transmission" : {
                    "transmissionFactor" : 1
                }
            },
            "name" : "Glass",
            "pbrMetallicRoughness" : {
                "baseColorFactor" : [
                    0.07915554940700531,
                    0.1503494530916214,
                    0.22142761945724487,
                    1
                ],
                "metallicFactor" : 0,
                "roughnessFactor" : 0.29527556896209717
            }
        },
        {
            "doubleSided" : true,
            "name" : "Bumper",
            "pbrMetallicRoughness" : {
                "baseColorFactor" : [
                    0.05221721902489662,
                    0.05221721902489662,
                    0.05221721902489662,
                    1
                ],
                "metallicFactor" : 0,
                "roughnessFactor" : 0.7598425149917603
            }
        },
        {
            "doubleSided" : true,
            "name" : "Wheel",
            "pbrMetallicRoughness" : {
                "baseColorFactor" : [
                    0,
                    0,
                    0,
                    1
                ],
                "metallicFactor" : 0,
                "roughnessFactor" : 0.7677165269851685
            }
        },
        {
            "doubleSided" : true,
            "name" : "Light",
            "pbrMetallicRoughness" : {
                "baseColorFactor" : [
                    0.9575672745704651,
                    1,
                    0.06019497290253639,
                    1
                ],
                "metallicFactor" : 0,
                "roughnessFactor" : 0.20078739523887634
            }
        },
        {
            "doubleSided" : true,
            "name" : "Hub Cap",
            "pbrMetallicRoughness" : {
                "baseColorFactor" : [
                    0.2597963809967041,
                    0.2597963809967041,
                    0.2597963809967041,
                    1
                ],
                "roughnessFactor" : 0.5
            }
        }
    ],
    "meshes" : [
        {
            "name" : "Plane.001",
            "primitives" : [
                {
                    "attributes" : {
                        "POSITION" : 0,
                        "NORMAL" : 1,
                        "TEXCOORD_0" : 2
                    },
                    "indices" : 3,
                    "material" : 0
                },
                {
                    "attributes" : {
                        "POSITION" : 4,
                        "NORMAL" : 5,
                        "TEXCOORD_0" : 6
                    },
                    "indices" : 7,
                    "material" : 1
                },
                {
                    "attributes" : {
                        "POSITION" : 8,
                        "NORMAL" : 9,
                        "TEXCOORD_0" : 10
                    },
                    "indices" : 11,
                    "material" : 2
                },
                {
                    "attributes" : {
                        "POSITION" : 12,
                        "NORMAL" : 13,
                        "TEXCOORD_0" : 14
                    },
                    "indices" : 15,
                    "material" : 3
                },
                {
                    "attributes" : {
                        "POSITION" : 16,
                        "NORMAL" : 17,
                        "TEXCOORD_0" : 18
                    },
                    "indices" : 19,
                    "material" : 4
                },
                {
                    "attributes" : {
                        "POSITION" : 20,
                        "NORMAL" : 21,
                        "TEXCOORD_0" : 22
                    },
                    "indices" : 23,
                    "material" : 5
                }
            ]
        }
    ],
    "accessors" : [
        {
            "bufferView" : 0,
            "componentType" : 5126,
            "count" : 936,
            "max" : [
                3.711638927459717,
                2.5132274627685547,
                5.120570659637451
            ],
            "min" : [
                -3.711638927459717,
                -2.5,
                -8.237774848937988
            ],
            "type" : "VEC3"
        },
        {
            "bufferView" : 1,
            "componentType" : 5126,
            "count" : 936,
            "type" : "VEC3"
        },
        {
            "bufferView" : 2,
            "componentType" : 5126,
            "count" : 936,
            "type" : "VEC2"
        },
        {
            "bufferView" : 3,
            "componentType" : 5123,
            "count" : 1752,
            "type" : "SCALAR"
        },
        {
            "bufferView" : 4,
            "componentType" : 5126,
            "count" : 58,
            "max" : [
                3.6642568111419678,
                2.304158926010132,
                2.37703013420105
            ],
            "min" : [
                -3.6642568111419678,
                -0.3111632168292999,
                -8.14229965209961
            ],
            "type" : "VEC3"
        },
        {
            "bufferView" : 5,
            "componentType" : 5126,
            "count" : 58,
            "type" : "VEC3"
        },
        {
            "bufferView" : 6,
            "componentType" : 5126,
            "count" : 58,
            "type" : "VEC2"
        },
        {
            "bufferView" : 7,
            "componentType" : 5123,
            "count" : 102,
            "type" : "SCALAR"
        },
        {
            "bufferView" : 8,
            "componentType" : 5126,
            "count" : 336,
            "max" : [
                2.5767762660980225,
                -0.5253123044967651,
                5.239487171173096
            ],
            "min" : [
                -2.5767762660980225,
                -2.592318534851074,
                -8.341341972351074
            ],
            "type" : "VEC3"
        },
        {
            "bufferView" : 9,
            "componentType" : 5126,
            "count" : 336,
            "type" : "VEC3"
        },
        {
            "bufferView" : 10,
            "componentType" : 5126,
            "count" : 336,
            "type" : "VEC2"
        },
        {
            "bufferView" : 11,
            "componentType" : 5123,
            "count" : 636,
            "type" : "SCALAR"
        },
        {
            "bufferView" : 12,
            "componentType" : 5126,
            "count" : 1814,
            "max" : [
                2.6476757526397705,
                -1.0623598098754883,
                2.9240899085998535
            ],
            "min" : [
                -2.6476757526397705,
                -3.2270710468292236,
                -6.8962907791137695
            ],
            "type" : "VEC3"
        },
        {
            "bufferView" : 13,
            "componentType" : 5126,
            "count" : 1814,
            "type" : "VEC3"
        },
        {
            "bufferView" : 14,
            "componentType" : 5126,
            "count" : 1814,
            "type" : "VEC2"
        },
        {
            "bufferView" : 15,
            "componentType" : 5123,
            "count" : 2856,
            "type" : "SCALAR"
        },
        {
            "bufferView" : 16,
            "componentType" : 5126,
            "count" : 160,
            "max" : [
                2.3915178775787354,
                -1.219956398010254,
                5.347999572753906
            ],
            "min" : [
                -2.3915178775787354,
                -1.8622589111328125,
                5.1081929206848145
            ],
            "type" : "VEC3"
        },
        {
            "bufferView" : 17,
            "componentType" : 5126,
            "count" : 160,
            "type" : "VEC3"
        },
        {
            "bufferView" : 18,
            "componentType" : 5126,
            "count" : 160,
            "type" : "VEC2"
        },
        {
            "bufferView" : 19,
            "componentType" : 5123,
            "count" : 264,
            "type" : "SCALAR"
        },
        {
            "bufferView" : 20,
            "componentType" : 5126,
            "count" : 838,
            "max" : [
                2.6476757526397705,
                -1.5316410064697266,
                2.4427404403686523
            ],
            "min" : [
                -2.6476757526397705,
                -2.7577900886535645,
                -6.414941787719727
            ],
            "type" : "VEC3"
        },
        {
            "bufferView" : 21,
            "componentType" : 5126,
            "count" : 838,
            "type" : "VEC3"
        },
        {
            "bufferView" : 22,
            "componentType" : 5126,
            "count" : 838,
            "type" : "VEC2"
        },
        {
            "bufferView" : 23,
            "componentType" : 5123,
            "count" : 1320,
            "type" : "SCALAR"
        }
    ],
    "bufferViews" : [
        {
            "buffer" : 0,
            "byteLength" : 11232,
            "byteOffset" : 0
        },
        {
            "buffer" : 0,
            "byteLength" : 11232,
            "byteOffset" : 11232
        },
        {
            "buffer" : 0,
            "byteLength" : 7488,
            "byteOffset" : 22464
        },
        {
            "buffer" : 0,
            "byteLength" : 3504,
            "byteOffset" : 29952
        },
        {
            "buffer" : 0,
            "byteLength" : 696,
            "byteOffset" : 33456
        },
        {
            "buffer" : 0,
            "byteLength" : 696,
            "byteOffset" : 34152
        },
        {
            "buffer" : 0,
            "byteLength" : 464,
            "byteOffset" : 34848
        },
        {
            "buffer" : 0,
            "byteLength" : 204,
            "byteOffset" : 35312
        },
        {
            "buffer" : 0,
            "byteLength" : 4032,
            "byteOffset" : 35516
        },
        {
            "buffer" : 0,
            "byteLength" : 4032,
            "byteOffset" : 39548
        },
        {
            "buffer" : 0,
            "byteLength" : 2688,
            "byteOffset" : 43580
        },
        {
            "buffer" : 0,
            "byteLength" : 1272,
            "byteOffset" : 46268
        },
        {
            "buffer" : 0,
            "byteLength" : 21768,
            "byteOffset" : 47540
        },
        {
            "buffer" : 0,
            "byteLength" : 21768,
            "byteOffset" : 69308
        },
        {
            "buffer" : 0,
            "byteLength" : 14512,
            "byteOffset" : 91076
        },
        {
            "buffer" : 0,
            "byteLength" : 5712,
            "byteOffset" : 105588
        },
        {
            "buffer" : 0,
            "byteLength" : 1920,
            "byteOffset" : 111300
        },
        {
            "buffer" : 0,
            "byteLength" : 1920,
            "byteOffset" : 113220
        },
        {
            "buffer" : 0,
            "byteLength" : 1280,
            "byteOffset" : 115140
        },
        {
            "buffer" : 0,
            "byteLength" : 528,
            "byteOffset" : 116420
        },
        {
            "buffer" : 0,
            "byteLength" : 10056,
            "byteOffset" : 116948
        },
        {
            "buffer" : 0,
            "byteLength" : 10056,
            "byteOffset" : 127004
        },
        {
            "buffer" : 0,
            "byteLength" : 6704,
            "byteOffset" : 137060
        },
        {
            "buffer" : 0,
            "byteLength" : 2640,
            "byteOffset" : 143764
        }
    ],
    "buffers" : [
        {
            "byteLength" : 146404,
            "uri" : "data:application/octet-stream;base64,"
        }
    ]
}
