{
    "asset" : {
        "generator" : "Khronos glTF Blender I/O v3.2.43",
        "version" : "2.0"
    },
    "scene" : 0,
    "scenes" : [
        {
            "name" : "Scene",
            "nodes" : [
                0,
                1
            ]
        }
    ],
    "nodes" : [
        {
            "mesh" : 0,
            "name" : "Shop",
            "translation" : [
                0,
                1.2000000476837158,
                0
            ]
        },
        {
            "mesh" : 1,
            "name" : "Text",
            "rotation" : [
                0.5,
                0.5,
                -0.5,
                0.5
            ],
            "scale" : [
                0.9675688147544861,
                0.9675688147544861,
                0.9675688147544861
            ],
            "translation" : [
                1.2648351192474365,
                2.6489715576171875,
                0.8290539383888245
            ]
        }
    ],
    "materials" : [
        {
            "doubleSided" : true,
            "name" : "Color_swatch",
            "pbrMetallicRoughness" : {
                "baseColorTexture" : {
                    "index" : 0
                },
                "metallicFactor" : 0,
                "roughnessFactor" : 0.5
            }
        },
        {
            "doubleSided" : true,
            "name" : "Material.004",
            "pbrMetallicRoughness" : {
                "baseColorFactor" : [
                    0.06195124611258507,
                    0.27948349714279175,
                    0.8000000715255737,
                    1
                ],
                "metallicFactor" : 0,
                "roughnessFactor" : 0.5
            }
        }
    ],
    "meshes" : [
        {
            "name" : "Cube.004",
            "primitives" : [
                {
                    "attributes" : {
                        "POSITION" : 0,
                        "NORMAL" : 1,
                        "TEXCOORD_0" : 2
                    },
                    "indices" : 3,
                    "material" : 0
                }
            ]
        },
        {
            "name" : "Text",
            "primitives" : [
                {
                    "attributes" : {
                        "POSITION" : 4,
                        "NORMAL" : 5,
                        "TEXCOORD_0" : 6
                    },
                    "indices" : 7,
                    "material" : 1
                }
            ]
        }
    ],
    "textures" : [
        {
            "sampler" : 0,
            "source" : 0
        }
    ],
    "images" : [
        {
            "bufferView" : 4,
            "mimeType" : "image/png",
            "name" : "color_swatch"
        }
    ],
    "accessors" : [
        {
            "bufferView" : 0,
            "componentType" : 5126,
            "count" : 214,
            "max" : [
                1.25,
                2.049999952316284,
                1.875
            ],
            "min" : [
                -1.25,
                -1.25,
                -1.875
            ],
            "type" : "VEC3"
        },
        {
            "bufferView" : 1,
            "componentType" : 5126,
            "count" : 214,
            "type" : "VEC3"
        },
        {
            "bufferView" : 2,
            "componentType" : 5126,
            "count" : 214,
            "type" : "VEC2"
        },
        {
            "bufferView" : 3,
            "componentType" : 5123,
            "count" : 396,
            "type" : "SCALAR"
        },
        {
            "bufferView" : 5,
            "componentType" : 5126,
            "count" : 5224,
            "max" : [
                1.7534735202789307,
                0.10000000149011612,
                0.1814212054014206
            ],
            "min" : [
                0.03056768700480461,
                -0.10000000149011612,
                -0.5645097494125366
            ],
            "type" : "VEC3"
        },
        {
            "bufferView" : 6,
            "componentType" : 5126,
            "count" : 5224,
            "type" : "VEC3"
        },
        {
            "bufferView" : 7,
            "componentType" : 5126,
            "count" : 5224,
            "type" : "VEC2"
        },
        {
            "bufferView" : 8,
            "componentType" : 5123,
            "count" : 9324,
            "type" : "SCALAR"
        }
    ],
    "bufferViews" : [
        {
            "buffer" : 0,
            "byteLength" : 2568,
            "byteOffset" : 0
        },
        {
            "buffer" : 0,
            "byteLength" : 2568,
            "byteOffset" : 2568
        },
        {
            "buffer" : 0,
            "byteLength" : 1712,
            "byteOffset" : 5136
        },
        {
            "buffer" : 0,
            "byteLength" : 792,
            "byteOffset" : 6848
        },
        {
            "buffer" : 0,
            "byteLength" : 202863,
            "byteOffset" : 7640
        },
        {
            "buffer" : 0,
            "byteLength" : 62688,
            "byteOffset" : 210504
        },
        {
            "buffer" : 0,
            "byteLength" : 62688,
            "byteOffset" : 273192
        },
        {
            "buffer" : 0,
            "byteLength" : 41792,
            "byteOffset" : 335880
        },
        {
            "buffer" : 0,
            "byteLength" : 18648,
            "byteOffset" : 377672
        }
    ],
    "samplers" : [
        {
            "magFilter" : 9729,
            "minFilter" : 9987
        }
    ],
    "buffers" : [
        {
            "byteLength" : 396320,
            "uri" : "data:application/octet-stream;base64,"
        }
    ]
}
